<svg width="1498" height="903" viewBox="0 0 1498 903" fill="none" xmlns="http://www.w3.org/2000/svg">
<g clip-path="url(#clip0_412_874)">
<rect width="1498" height="903" fill="#121315"/>
<path d="M-13.5 -19.5H1530.5V902.5H447.5C192.897 902.5 -13.5 696.103 -13.5 441.5V-19.5Z" stroke="white"/>
<circle cx="161.5" cy="259.5" r="5.5" fill="#D9D9D9" fill-opacity="0.11"/>
<circle cx="1337.5" cy="539.5" r="5.5" fill="#D9D9D9" fill-opacity="0.11"/>
<circle cx="1394.5" cy="259.5" r="5.5" fill="#D9D9D9" fill-opacity="0.11"/>
<circle cx="778.5" cy="595.5" r="5.5" fill="#D9D9D9" fill-opacity="0.11"/>
<circle cx="329.5" cy="483.5" r="5.5" fill="#D9D9D9" fill-opacity="0.11"/>
<line x1="50.5" y1="2.18557e-08" x2="50.5" y2="1024" stroke="white" stroke-opacity="0.05"/>
<line x1="106.5" y1="2.18557e-08" x2="106.5" y2="1024" stroke="white" stroke-opacity="0.05"/>
<line x1="162.5" y1="2.18557e-08" x2="162.5" y2="1024" stroke="white" stroke-opacity="0.05"/>
<line x1="218.5" y1="2.18557e-08" x2="218.5" y2="1024" stroke="white" stroke-opacity="0.05"/>
<line x1="274.5" y1="2.18557e-08" x2="274.5" y2="1024" stroke="white" stroke-opacity="0.05"/>
<line x1="330.5" y1="2.18557e-08" x2="330.5" y2="1024" stroke="white" stroke-opacity="0.05"/>
<line x1="386.5" y1="2.18557e-08" x2="386.5" y2="1024" stroke="white" stroke-opacity="0.05"/>
<line x1="442.5" y1="2.18557e-08" x2="442.5" y2="1024" stroke="white" stroke-opacity="0.05"/>
<line x1="498.5" y1="2.18557e-08" x2="498.5" y2="1024" stroke="white" stroke-opacity="0.05"/>
<line x1="554.5" y1="2.18557e-08" x2="554.5" y2="1024" stroke="white" stroke-opacity="0.05"/>
<line x1="610.5" y1="2.18557e-08" x2="610.5" y2="1024" stroke="white" stroke-opacity="0.05"/>
<line x1="666.5" y1="2.18557e-08" x2="666.5" y2="1024" stroke="white" stroke-opacity="0.05"/>
<line x1="722.5" y1="2.18557e-08" x2="722.5" y2="1024" stroke="white" stroke-opacity="0.05"/>
<line x1="778.5" y1="2.18557e-08" x2="778.5" y2="1024" stroke="white" stroke-opacity="0.05"/>
<line x1="834.5" y1="2.18557e-08" x2="834.5" y2="1024" stroke="white" stroke-opacity="0.05"/>
<line x1="890.5" y1="2.18557e-08" x2="890.5" y2="1024" stroke="white" stroke-opacity="0.05"/>
<line x1="946.5" y1="2.18557e-08" x2="946.5" y2="1024" stroke="white" stroke-opacity="0.05"/>
<line x1="1002.5" y1="2.18557e-08" x2="1002.5" y2="1024" stroke="white" stroke-opacity="0.05"/>
<line x1="1058.5" y1="2.18557e-08" x2="1058.5" y2="1024" stroke="white" stroke-opacity="0.05"/>
<line x1="1114.5" y1="2.18557e-08" x2="1114.5" y2="1024" stroke="white" stroke-opacity="0.05"/>
<line x1="1170.5" y1="2.18557e-08" x2="1170.5" y2="913" stroke="white" stroke-opacity="0.05"/>
<line x1="1226.5" y1="2.18557e-08" x2="1226.5" y2="913" stroke="white" stroke-opacity="0.05"/>
<line x1="1282.5" y1="2.18557e-08" x2="1282.5" y2="913" stroke="white" stroke-opacity="0.05"/>
<line x1="1338.5" y1="2.18557e-08" x2="1338.5" y2="913" stroke="white" stroke-opacity="0.05"/>
<line x1="1394.5" y1="2.18557e-08" x2="1394.5" y2="932" stroke="white" stroke-opacity="0.05"/>
<line x1="1450.5" y1="2.18557e-08" x2="1450.5" y2="932" stroke="white" stroke-opacity="0.05"/>
<line x1="2" y1="875.5" x2="1498" y2="875.5" stroke="white" stroke-opacity="0.05"/>
<line x1="2" y1="819.5" x2="1498" y2="819.5" stroke="white" stroke-opacity="0.05"/>
<line x1="2" y1="763.5" x2="1498" y2="763.5" stroke="white" stroke-opacity="0.05"/>
<line x1="2" y1="707.5" x2="1557" y2="707.5" stroke="white" stroke-opacity="0.05"/>
<line x1="2" y1="651.5" x2="1518" y2="651.5" stroke="white" stroke-opacity="0.05"/>
<line x1="2" y1="595.5" x2="1518" y2="595.5" stroke="white" stroke-opacity="0.05"/>
<line x1="2" y1="539.5" x2="1506" y2="539.5" stroke="white" stroke-opacity="0.05"/>
<line x1="2" y1="483.5" x2="1518" y2="483.5" stroke="white" stroke-opacity="0.05"/>
<line x1="2" y1="427.5" x2="1518" y2="427.5" stroke="white" stroke-opacity="0.05"/>
<line x1="2" y1="371.5" x2="1498" y2="371.5" stroke="white" stroke-opacity="0.05"/>
<line x1="2" y1="315.5" x2="1498" y2="315.5" stroke="white" stroke-opacity="0.05"/>
<line x1="2" y1="259.5" x2="1498" y2="259.5" stroke="white" stroke-opacity="0.05"/>
<line x1="2" y1="203.5" x2="1498" y2="203.5" stroke="white" stroke-opacity="0.05"/>
<line x1="2" y1="147.5" x2="1498" y2="147.5" stroke="white" stroke-opacity="0.05"/>
<line x1="2" y1="91.5" x2="1498" y2="91.5001" stroke="white" stroke-opacity="0.05"/>
<line x1="2" y1="35.5" x2="1498" y2="35.5001" stroke="white" stroke-opacity="0.05"/>
<rect x="162" y="204" width="56" height="56" fill="#D9D9D9" fill-opacity="0.05"/>
<rect x="610" y="484" width="56" height="56" fill="#D9D9D9" fill-opacity="0.05"/>
<rect x="218" y="652" width="56" height="56" fill="#D9D9D9" fill-opacity="0.05"/>
<rect x="1002" y="148" width="56" height="56" fill="#D9D9D9" fill-opacity="0.05"/>
<rect x="1226" y="428" width="56" height="56" fill="#D9D9D9" fill-opacity="0.05"/>
</g>
<defs>
<clipPath id="clip0_412_874">
<rect width="1498" height="903" fill="white"/>
</clipPath>
</defs>
</svg>
